# xmcd
#
# Track frame offsets: 
#        150
#        26277
#        53900
#        65190
#        77320
#        101447
#        140257
#        168825
#        200288
#        219580
#        236080
#        252062
#        275360
#        292947
#        315689
#
# Disc length: 4580 seconds
#
# Revision: 2
# Processed by: cddbd v1.5.2PL0 Copyright (c) Steve Scherf et al.
# Submitted via: ExactAudioCopyFreeDBPlugin 1.0
#
DISCID=c911e20f
DTITLE=Roy Eldridge - SwingTime 016 - Roy Eldridge 08 - 1955
DYEAR=1955
DGENRE=Jazz
TTITLE0=Roy Eldridge - Benny Carter Quintet - I Still Love Him So
TTITLE1=Roy Eldridge - Benny Carter Quintet - The Moon Is Low (1)
TTITLE2=Roy Eldridge - Benny Carter Quintet - The Moon Is Low (2)
TTITLE3=Roy Eldridge - Benny Carter Quintet - Close Your Eyes
TTITLE4=Roy Eldridge - Benny Carter Quintet - I Missed My Hat
TTITLE5=Roy Eldridge - Benny Carter Quintet - Polite Blues
TTITLE6=Roy Eldridge - Benny Carter Quintet - I've Got The World On A 
TTITLE6=String
TTITLE7=Art Tatum - Roy Eldridge - I Surrender Dear
TTITLE8=Art Tatum - Roy Eldridge - The Moon Is Low
TTITLE9=Art Tatum - Roy Eldridge - You Took Advantage Of Me
TTITLE10=Art Tatum - Roy Eldridge - I Won't Dance
TTITLE11=Art Tatum - Roy Eldridge - Moon Song
TTITLE12=Art Tatum - Roy Eldridge - This Can't Be Love
TTITLE13=Art Tatum - Roy Eldridge - In A Sentimental Mood
TTITLE14=Art Tatum - Roy Eldridge - Night And Day
EXTD=YEAR: 2006
EXTT0=
EXTT1=
EXTT2=
EXTT3=
EXTT4=
EXTT5=
EXTT6=
EXTT7=
EXTT8=
EXTT9=
EXTT10=
EXTT11=
EXTT12=
EXTT13=
EXTT14=
PLAYORDER=
